<svg xmlns="http://www.w3.org/2000/svg" xmlns:xlink="http://www.w3.org/1999/xlink" xml:space="preserve" id="svg1" version="1.1" viewBox="28.47457627118644 125.928 147.1186440677966 39.204" style="max-height: 500px" width="147.1186440677966" height="39.204"><defs id="defs1"><linearGradient id="linearGradient28"><stop id="stop28" offset="0" style="stop-color:#ff0b0b;stop-opacity:1;"/><stop id="stop29" offset="1" style="stop-color:#ff7d7d;stop-opacity:0.45609066;"/></linearGradient><linearGradient id="linearGradient26"><stop id="stop26" offset="0.38217822" style="stop-color:#ff0b0b;stop-opacity:1;"/><stop id="stop27" offset="1" style="stop-color:#ff0b0b;stop-opacity:0.38243628;"/></linearGradient><linearGradient id="linearGradient24"><stop id="stop24" offset="0" style="stop-color:#ff0b0b;stop-opacity:1;"/><stop id="stop25" offset="1" style="stop-color:#c60000;stop-opacity:0.84135979;"/></linearGradient><linearGradient id="linearGradient22"><stop id="stop22" offset="0.42574257" style="stop-color:#ff0b0b;stop-opacity:1;"/><stop id="stop23" offset="1" style="stop-color:#ff0b0b;stop-opacity:0.52407932;"/></linearGradient><linearGradient gradientTransform="translate(-55.788653,0.49999)" gradientUnits="userSpaceOnUse" y2="143.99998" x2="124.28522" y1="143.99998" x1="99.886709" id="linearGradient23" xlink:href="#linearGradient22"/><linearGradient gradientTransform="translate(-55.788653,0.49999)" gradientUnits="userSpaceOnUse" y2="142.76323" x2="115.92764" y1="152.00002" x1="114.26305" id="linearGradient25" xlink:href="#linearGradient24"/><linearGradient gradientTransform="translate(-55.788653,0.49999)" gradientUnits="userSpaceOnUse" y2="150.21457" x2="109.33958" y1="152.00002" x1="99.886711" id="linearGradient27" xlink:href="#linearGradient26"/><linearGradient gradientTransform="translate(-55.788653,0.49999)" gradientUnits="userSpaceOnUse" y2="132.66614" x2="109.12424" y1="132.99998" x1="88.154694" id="linearGradient29" xlink:href="#linearGradient28"/></defs><g style="display:inline" id="layer1"><path id="path10" d="m 30.633991,130.49998 10.000004,1e-5 3.464102,5.99999 H 34.098096 l -3.464105,-6" style="display:inline;fill:url(#linearGradient29);fill-opacity:1;stroke:none;stroke-width:0.1;stroke-linecap:round;stroke-miterlimit:0;stroke-dasharray:none"/><path id="path12" d="m 38.716896,144.49998 h 10.000001 l 8.66025,15 h -9.99999 z" style="display:inline;fill:url(#linearGradient27);fill-opacity:1;stroke:none;stroke-width:0.1;stroke-linecap:round;stroke-miterlimit:0;stroke-dasharray:none"/><path id="path19" style="display:inline;fill:url(#linearGradient23);fill-opacity:1;stroke:none;stroke-width:0.1;stroke-linecap:round;stroke-miterlimit:0" d="m 44.098056,136.49995 4.618841,8.00003 h 9.45265 a 5.7081181,5.7081181 0 0 1 5.2281,8.00002 h 0.0398 l 4.29432,-7.43778 a 5.7081181,5.7081181 0 0 0 -4.94337,-8.56227 z"/><path id="path22" style="display:inline;fill:url(#linearGradient25);fill-opacity:1;stroke-width:0.1;stroke-linecap:round;stroke-miterlimit:0" d="m 63.397867,152.50001 c 1.653614,-3.77187 -1.109676,-8.00024 -5.2281,-8.00002 l -4.61884,8.00002 z"/><path aria-label="evline." style="font-weight:bold;font-size:38.1px;font-family:'Space Grotesk';-inkscape-font-specification:'Space Grotesk Bold';text-align:center;letter-spacing:-1.9976px;word-spacing:0px;text-anchor:middle;fill:#ff0b0b;stroke-width:0.1;stroke-linecap:round;stroke-miterlimit:0" id="text29" d="m 78.061233,159.49997 q -2.8194,0 -4.9911,-1.1811 -2.1336,-1.2192 -3.3528,-3.3909 -1.1811,-2.2098 -1.1811,-5.1816 v -0.4572 q 0,-2.9718 1.1811,-5.1435 1.1811,-2.2098 3.3147,-3.3909 2.1336,-1.2192 4.953,-1.2192 2.7813,0 4.8387,1.2573 2.0574,1.2192 3.2004,3.429 1.143,2.1717 1.143,5.0673 v 1.6383 h -13.7541 q 0.0762,1.9431 1.4478,3.1623 1.3716,1.2192 3.3528,1.2192 2.0193,0 2.9718,-0.8763 0.9525,-0.8763 1.4478,-1.9431 l 3.9243,2.0574 q -0.5334,0.9906 -1.5621,2.1717 -0.9906,1.143 -2.667,1.9812 -1.6764,0.8001 -4.2672,0.8001 z m -4.6101,-12.1539 h 8.8392 q -0.1524,-1.6383 -1.3335,-2.6289 -1.143,-0.9906 -3.0099,-0.9906 -1.9431,0 -3.0861,0.9906 -1.143,0.9906 -1.4097,2.6289 z m 19.414588,11.6205 -6.019799,-18.8976 h 5.105399 l 4.3815,15.3924 h 0.6858 l 4.381499,-15.3924 h 5.1054 l -6.0198,18.8976 z m 14.918809,0 v -26.67 h 4.8006 v 26.67 z m 8.13703,0 v -18.8976 h 4.8006 v 18.8976 z m 2.4003,-21.1074 q -1.2954,0 -2.2098,-0.8382 -0.8763,-0.8382 -0.8763,-2.2098 0,-1.3716 0.8763,-2.2098 0.9144,-0.8382 2.2098,-0.8382 1.3335,0 2.2098,0.8382 0.8763,0.8382 0.8763,2.2098 0,1.3716 -0.8763,2.2098 -0.8763,0.8382 -2.2098,0.8382 z m 5.73673,21.1074 v -18.8976 h 4.7244 v 2.4765 h 0.6858 q 0.4572,-0.9906 1.7145,-1.8669 1.2573,-0.9144 3.81,-0.9144 2.2098,0 3.8481,1.0287 1.6764,0.9906 2.5908,2.7813 0.9144,1.7526 0.9144,4.1148 v 11.2776 h -4.8006 v -10.8966 q 0,-2.1336 -1.0668,-3.2004 -1.0287,-1.0668 -2.9718,-1.0668 -2.2098,0 -3.429,1.4859 -1.2192,1.4478 -1.2192,4.0767 v 9.6012 z m 30.08257,0.5334 q -2.8194,0 -4.9911,-1.1811 -2.1336,-1.2192 -3.3528,-3.3909 -1.1811,-2.2098 -1.1811,-5.1816 v -0.4572 q 0,-2.9718 1.1811,-5.1435 1.1811,-2.2098 3.3147,-3.3909 2.1336,-1.2192 4.953,-1.2192 2.7813,0 4.8387,1.2573 2.0574,1.2192 3.2004,3.429 1.143,2.1717 1.143,5.0673 v 1.6383 h -13.7541 q 0.0762,1.9431 1.4478,3.1623 1.3716,1.2192 3.3528,1.2192 2.0193,0 2.9718,-0.8763 0.9525,-0.8763 1.4478,-1.9431 l 3.9243,2.0574 q -0.5334,0.9906 -1.5621,2.1717 -0.9906,1.143 -2.667,1.9812 -1.6764,0.8001 -4.2672,0.8001 z m -4.6101,-12.1539 h 8.8392 q -0.1524,-1.6383 -1.3335,-2.6289 -1.143,-0.9906 -3.0099,-0.9906 -1.9431,0 -3.0861,0.9906 -1.143,0.9906 -1.4097,2.6289 z m 18.76694,12.1539 q -1.524,0 -2.5908,-0.9906 -1.0287,-1.0287 -1.0287,-2.6289 0,-1.6002 1.0287,-2.5908 1.0668,-1.0287 2.5908,-1.0287 1.5621,0 2.5908,1.0287 1.0287,0.9906 1.0287,2.5908 0,1.6002 -1.0287,2.6289 -1.0287,0.9906 -2.5908,0.9906 z"/></g></svg>